<?xml version="1.0" encoding="UTF-8" standalone="no"?>
<svg
   xmlns:dc="http://purl.org/dc/elements/1.1/"
   xmlns:cc="http://creativecommons.org/ns#"
   xmlns:rdf="http://www.w3.org/1999/02/22-rdf-syntax-ns#"
   xmlns:svg="http://www.w3.org/2000/svg"
   xmlns="http://www.w3.org/2000/svg"
   xmlns:sodipodi="http://sodipodi.sourceforge.net/DTD/sodipodi-0.dtd"
   xmlns:inkscape="http://www.inkscape.org/namespaces/inkscape"
   width="18.845154"
   height="30.639677"
   viewBox="0 0 4.9861135 8.1067481"
   version="1.1"
   id="svg8"
   inkscape:version="1.0 (4035a4fb49, 2020-05-01)"
   sodipodi:docname="igreja-logo.svg"
   inkscape:export-filename="/home/erijohnson/Ãrea de Trabalho/capa-jovens-maanaim.png"
   inkscape:export-xdpi="96"
   inkscape:export-ydpi="96">
  <defs
     id="defs2">
    <clipPath
       id="clipPath945-2"
       clipPathUnits="userSpaceOnUse">
      <path
         inkscape:connector-curvature="0"
         id="path943-0"
         d="m 2987.03,1508.67 c 38.13,43.83 129.77,129.26 211.99,233.48 82.27,104.18 155.12,227.22 223.68,374.45 68.51,147.23 132.69,318.63 165.82,400.04 33.12,81.41 35.15,72.77 26.25,15.23 -8.91,-57.57 -28.79,-164.1 -50.16,-271.87 -21.41,-107.77 -44.3,-216.84 -59.06,-280.7 -14.81,-63.91 -21.45,-82.58 -18.56,-100.04 2.89,-17.46 15.31,-33.75 19.69,-53.95 4.37,-20.19 0.7,-44.33 -25.16,-85.47 -25.82,-41.13 -73.86,-99.22 -153.47,-145.74 -79.61,-46.52 -190.78,-81.44 -254.1,-101.8 -63.32,-20.35 -78.79,-26.13 -94.18,-27.89 -15.43,-1.79 -30.82,0.47 7.26,44.26 z" />
    </clipPath>
    <clipPath
       id="clipPath961-2"
       clipPathUnits="userSpaceOnUse">
      <path
         inkscape:connector-curvature="0"
         id="path959-3"
         d="m 1957.54,1508.67 c 38.12,43.83 129.73,129.26 211.99,233.48 82.27,104.18 155.12,227.22 223.67,374.45 68.52,147.23 132.7,318.63 165.82,400.04 33.13,81.41 35.16,72.77 26.25,15.23 -8.9,-57.57 -28.79,-164.1 -50.15,-271.87 -21.41,-107.77 -44.3,-216.84 -59.07,-280.7 -14.8,-63.91 -21.44,-82.58 -18.55,-100.04 2.89,-17.46 15.31,-33.75 19.69,-53.95 4.37,-20.19 0.7,-44.33 -25.16,-85.47 -25.82,-41.13 -73.87,-99.22 -153.48,-145.74 -79.6,-46.52 -190.78,-81.44 -254.1,-101.8 -63.32,-20.35 -78.75,-26.13 -94.18,-27.89 -15.43,-1.79 -30.82,0.47 7.27,44.26 z" />
    </clipPath>
    <clipPath
       id="clipPath977-7"
       clipPathUnits="userSpaceOnUse">
      <path
         inkscape:connector-curvature="0"
         id="path975-5"
         d="m 3880.47,1507.85 c -38.28,58.83 -98.48,185.47 -143.13,324.14 -44.61,138.67 -73.63,289.38 -89.57,408.67 -15.89,119.38 -18.71,207.31 -17.54,287.23 1.14,79.92 6.22,151.8 8.6,183.2 2.34,31.41 1.99,22.35 23.36,-25.78 21.4,-48.16 64.53,-135.35 141.44,-261.76 76.88,-126.36 187.54,-291.91 252.66,-390.15 65.12,-98.28 84.65,-129.26 94.34,-146.99 9.68,-17.78 9.49,-22.31 -5.36,-49.46 -14.88,-27.15 -44.41,-76.91 -79.18,-142.38 -34.72,-65.43 -74.64,-146.56 -102.77,-191.6 -28.16,-45.04 -44.53,-53.99 -82.85,4.88 z" />
    </clipPath>
    <clipPath
       id="clipPath993-9"
       clipPathUnits="userSpaceOnUse">
      <path
         inkscape:connector-curvature="0"
         id="path991-2"
         d="m 2850.98,1507.85 c -38.28,58.83 -98.48,185.47 -143.13,324.14 -44.61,138.67 -73.63,289.38 -89.57,408.67 -15.9,119.38 -18.71,207.31 -17.54,287.23 1.14,79.92 6.25,151.8 8.6,183.2 2.34,31.41 1.99,22.35 23.36,-25.78 21.36,-48.16 64.53,-135.35 141.44,-261.76 76.88,-126.36 187.54,-291.91 252.66,-390.15 65.11,-98.28 84.65,-129.26 94.33,-146.99 9.69,-17.78 9.5,-22.31 -5.35,-49.46 -14.88,-27.15 -44.45,-76.91 -79.18,-142.38 -34.72,-65.43 -74.65,-146.56 -102.77,-191.6 -28.17,-45.04 -44.53,-53.99 -82.85,4.88 z" />
    </clipPath>
    <clipPath
       clipPathUnits="userSpaceOnUse"
       id="clipPath49">
      <path
         d="M 0,800 H 800 V 0 H 0 Z"
         id="path47" />
    </clipPath>
    <clipPath
       clipPathUnits="userSpaceOnUse"
       id="clipPath57">
      <path
         d="M -49,849 H 849 V -49 H -49 Z"
         id="path55" />
    </clipPath>
    <clipPath
       clipPathUnits="userSpaceOnUse"
       id="clipPath61">
      <path
         d="M 800,0 H 0 v 800 h 800 z"
         id="path59" />
    </clipPath>
    <radialGradient
       fx="0"
       fy="0"
       cx="0"
       cy="0"
       r="1"
       gradientUnits="userSpaceOnUse"
       gradientTransform="matrix(400,0,0,-400,400,400)"
       spreadMethod="pad"
       id="radialGradient67">
      <stop
         style="stop-opacity:1;stop-color:#ffffff"
         offset="0"
         id="stop63" />
      <stop
         style="stop-opacity:1;stop-color:#e4e4e4"
         offset="1"
         id="stop65" />
    </radialGradient>
    <clipPath
       clipPathUnits="userSpaceOnUse"
       id="clipPath71">
      <path
         d="M 0,0 H 800 V 800 H 0 Z"
         id="path69" />
    </clipPath>
    <radialGradient
       fx="0"
       fy="0"
       cx="0"
       cy="0"
       r="1"
       gradientUnits="userSpaceOnUse"
       gradientTransform="matrix(448.99997,0,0,-448.99997,400,400)"
       spreadMethod="pad"
       id="radialGradient77">
      <stop
         style="stop-opacity:1;stop-color:#ffffff"
         offset="0"
         id="stop73" />
      <stop
         style="stop-opacity:1;stop-color:#e4e4e4"
         offset="1"
         id="stop75" />
    </radialGradient>
    <clipPath
       clipPathUnits="userSpaceOnUse"
       id="clipPath109">
      <path
         d="M 0,800 H 800 V 0 H 0 Z"
         id="path107" />
    </clipPath>
  </defs>
  <sodipodi:namedview
     id="base"
     pagecolor="#ffffff"
     bordercolor="#666666"
     borderopacity="1.0"
     inkscape:pageopacity="0.0"
     inkscape:pageshadow="2"
     inkscape:zoom="25.076726"
     inkscape:cx="9.4225754"
     inkscape:cy="15.319838"
     inkscape:document-units="px"
     inkscape:current-layer="layer1"
     showgrid="false"
     units="px"
     inkscape:window-width="1920"
     inkscape:window-height="1017"
     inkscape:window-x="-8"
     inkscape:window-y="-8"
     inkscape:window-maximized="1"
     inkscape:document-rotation="0" />
  <metadata
     id="metadata5">
    <rdf:RDF>
      <cc:Work
         rdf:about="">
        <dc:format>image/svg+xml</dc:format>
        <dc:type
           rdf:resource="http://purl.org/dc/dcmitype/StillImage" />
        <dc:title></dc:title>
      </cc:Work>
    </rdf:RDF>
  </metadata>
  <g
     inkscape:label="Camada 1"
     inkscape:groupmode="layer"
     id="layer1"
     transform="translate(-197.63418,-383.75769)">
    <path
       id="path39"
       style="fill:#ffffff;fill-opacity:1;fill-rule:nonzero;stroke:none;stroke-width:0.352778"
       d="M 256.30242,544.76959 H 537.73336 V 262.54737 H 256.30242 Z" />
    <path
       id="path41"
       style="fill:#ffffff;fill-opacity:1;fill-rule:nonzero;stroke:none;stroke-width:0.352778"
       d="M 256.30242,544.76959 H 537.73336 V 262.54737 H 256.30242 Z" />
    <g
       style="fill:#800000"
       transform="matrix(0.18151655,0,0,0.18151655,189.42198,333.91083)"
       id="g523">
      <g
         style="fill:#800000"
         id="g215"
         transform="matrix(0.08285784,0,0,-0.08285784,70.660316,311.31129)">
        <path
           d="m 0,0 c -2.714,-4.504 -4.278,-9.781 -4.278,-15.426 0,-1.832 0.174,-3.622 0.488,-5.363 -11.331,-2.144 -20.402,-10.661 -23.344,-21.688 -1.663,0.418 -3.395,0.665 -5.188,0.665 -6.896,0 -13.005,-3.304 -16.879,-8.402 h -34.011 -15.21 V 85.185 h -38.123 -8.925 -38.122 V -50.214 h -15.209 -34.012 c -3.873,5.098 -9.983,8.402 -16.877,8.402 -1.794,0 -3.527,-0.247 -5.19,-0.665 -2.94,11.027 -12.013,19.544 -23.344,21.688 0.316,1.741 0.489,3.531 0.489,5.363 0,5.645 -1.565,10.922 -4.279,15.426 V 130.277 L -141.007,197.124 0,130.277 Z m -108.155,-45.347 h -28.39 V 75.451 h 28.39 z m -37.315,0 h -28.389 V 75.451 h 28.389 z m -81.5,335.278 85.963,46.712 85.963,-46.712 v -95.842 l -85.963,40.754 -85.963,-40.754 z M 9.392,9.705 v 116.119 l 13.859,-6.571 v 37.719 l -67.344,31.926 v 95.083 l 15.789,-8.58 v 35.69 l -103.554,56.27 v 34.782 h 16.199 v 18.298 h -16.199 v 22.462 h -18.298 v -22.462 h -16.203 v -18.298 h 16.203 v -34.782 l -103.553,-56.27 v -35.69 l 15.788,8.58 v -95.083 l -67.344,-31.926 v -37.719 l 13.86,6.571 V 9.705 c -4.448,2.885 -9.707,4.629 -15.363,4.8 v -81.703 h 77.872 c 0.27,1.352 0.416,2.747 0.416,4.177 0,1.165 -0.119,2.301 -0.299,3.416 h 29.978 v -10.887 h -17.608 v -25.615 h 150.805 v 25.615 h -17.608 v 10.887 h 29.979 c -0.181,-1.115 -0.3,-2.251 -0.3,-3.416 0,-1.43 0.146,-2.825 0.416,-4.177 H 24.754 V 14.505 C 19.099,14.334 13.839,12.59 9.392,9.705"
           style="fill:#800000;fill-opacity:1;fill-rule:nonzero;stroke:none"
           id="path217" />
      </g>
      <g
         style="fill:#800000"
         id="g219"
         transform="matrix(0.08285784,0,0,-0.08285784,60.37146,299.51473)">
        <path
           d="m 0,0 c 0,-9.282 -7.551,-16.832 -16.832,-16.832 -9.281,0 -16.832,7.55 -16.832,16.832 0,9.28 7.551,16.832 16.832,16.832 C -7.551,16.832 0,9.28 0,0 m -42.181,0 c 0,-13.979 11.371,-25.35 25.349,-25.35 13.978,0 25.35,11.371 25.35,25.35 0,13.978 -11.372,25.349 -25.35,25.349 C -30.81,25.349 -42.181,13.978 -42.181,0"
           style="fill:#800000;fill-opacity:1;fill-rule:nonzero;stroke:none"
           id="path221" />
      </g>
      <g
         style="fill:#800000"
         id="g223"
         transform="matrix(0.08285784,0,0,-0.08285784,57.582134,288.49217)">
        <path
           d="m 0,0 c 0,9.281 7.551,16.833 16.832,16.833 9.281,0 16.832,-7.552 16.832,-16.833 0,-9.281 -7.551,-16.832 -16.832,-16.832 C 7.551,-16.832 0,-9.281 0,0 m 42.182,0 c 0,13.978 -11.371,25.349 -25.35,25.349 C 2.854,25.349 -8.517,13.978 -8.517,0 c 0,-13.978 11.371,-25.349 25.349,-25.349 13.979,0 25.35,11.371 25.35,25.349"
           style="fill:#800000;fill-opacity:1;fill-rule:nonzero;stroke:none"
           id="path225" />
      </g>
    </g>
  </g>
</svg>
