<?xml version="1.0" encoding="UTF-8" standalone="no"?>
<svg
   xmlns:dc="http://purl.org/dc/elements/1.1/"
   xmlns:cc="http://creativecommons.org/ns#"
   xmlns:rdf="http://www.w3.org/1999/02/22-rdf-syntax-ns#"
   xmlns:svg="http://www.w3.org/2000/svg"
   xmlns="http://www.w3.org/2000/svg"
   xmlns:sodipodi="http://sodipodi.sourceforge.net/DTD/sodipodi-0.dtd"
   xmlns:inkscape="http://www.inkscape.org/namespaces/inkscape"
   inkscape:export-ydpi="96"
   inkscape:export-xdpi="96"
   inkscape:export-filename="/home/erijohnson/Ãrea de Trabalho/capa-jovens-maanaim.png"
   sodipodi:docname="maanaim-logo.svg"
   inkscape:version="1.0 (4035a4fb49, 2020-05-01)"
   id="svg8"
   version="1.1"
   viewBox="0 0 59.557587 33.895247"
   height="128.10802"
   width="225.09955">
  <defs
     id="defs2">
    <clipPath
       clipPathUnits="userSpaceOnUse"
       id="clipPath945-2">
      <path
         d="m 2987.03,1508.67 c 38.13,43.83 129.77,129.26 211.99,233.48 82.27,104.18 155.12,227.22 223.68,374.45 68.51,147.23 132.69,318.63 165.82,400.04 33.12,81.41 35.15,72.77 26.25,15.23 -8.91,-57.57 -28.79,-164.1 -50.16,-271.87 -21.41,-107.77 -44.3,-216.84 -59.06,-280.7 -14.81,-63.91 -21.45,-82.58 -18.56,-100.04 2.89,-17.46 15.31,-33.75 19.69,-53.95 4.37,-20.19 0.7,-44.33 -25.16,-85.47 -25.82,-41.13 -73.86,-99.22 -153.47,-145.74 -79.61,-46.52 -190.78,-81.44 -254.1,-101.8 -63.32,-20.35 -78.79,-26.13 -94.18,-27.89 -15.43,-1.79 -30.82,0.47 7.26,44.26 z"
         id="path943-0"
         inkscape:connector-curvature="0" />
    </clipPath>
    <clipPath
       clipPathUnits="userSpaceOnUse"
       id="clipPath961-2">
      <path
         d="m 1957.54,1508.67 c 38.12,43.83 129.73,129.26 211.99,233.48 82.27,104.18 155.12,227.22 223.67,374.45 68.52,147.23 132.7,318.63 165.82,400.04 33.13,81.41 35.16,72.77 26.25,15.23 -8.9,-57.57 -28.79,-164.1 -50.15,-271.87 -21.41,-107.77 -44.3,-216.84 -59.07,-280.7 -14.8,-63.91 -21.44,-82.58 -18.55,-100.04 2.89,-17.46 15.31,-33.75 19.69,-53.95 4.37,-20.19 0.7,-44.33 -25.16,-85.47 -25.82,-41.13 -73.87,-99.22 -153.48,-145.74 -79.6,-46.52 -190.78,-81.44 -254.1,-101.8 -63.32,-20.35 -78.75,-26.13 -94.18,-27.89 -15.43,-1.79 -30.82,0.47 7.27,44.26 z"
         id="path959-3"
         inkscape:connector-curvature="0" />
    </clipPath>
    <clipPath
       clipPathUnits="userSpaceOnUse"
       id="clipPath977-7">
      <path
         d="m 3880.47,1507.85 c -38.28,58.83 -98.48,185.47 -143.13,324.14 -44.61,138.67 -73.63,289.38 -89.57,408.67 -15.89,119.38 -18.71,207.31 -17.54,287.23 1.14,79.92 6.22,151.8 8.6,183.2 2.34,31.41 1.99,22.35 23.36,-25.78 21.4,-48.16 64.53,-135.35 141.44,-261.76 76.88,-126.36 187.54,-291.91 252.66,-390.15 65.12,-98.28 84.65,-129.26 94.34,-146.99 9.68,-17.78 9.49,-22.31 -5.36,-49.46 -14.88,-27.15 -44.41,-76.91 -79.18,-142.38 -34.72,-65.43 -74.64,-146.56 -102.77,-191.6 -28.16,-45.04 -44.53,-53.99 -82.85,4.88 z"
         id="path975-5"
         inkscape:connector-curvature="0" />
    </clipPath>
    <clipPath
       clipPathUnits="userSpaceOnUse"
       id="clipPath993-9">
      <path
         d="m 2850.98,1507.85 c -38.28,58.83 -98.48,185.47 -143.13,324.14 -44.61,138.67 -73.63,289.38 -89.57,408.67 -15.9,119.38 -18.71,207.31 -17.54,287.23 1.14,79.92 6.25,151.8 8.6,183.2 2.34,31.41 1.99,22.35 23.36,-25.78 21.36,-48.16 64.53,-135.35 141.44,-261.76 76.88,-126.36 187.54,-291.91 252.66,-390.15 65.11,-98.28 84.65,-129.26 94.33,-146.99 9.69,-17.78 9.5,-22.31 -5.35,-49.46 -14.88,-27.15 -44.45,-76.91 -79.18,-142.38 -34.72,-65.43 -74.65,-146.56 -102.77,-191.6 -28.17,-45.04 -44.53,-53.99 -82.85,4.88 z"
         id="path991-2"
         inkscape:connector-curvature="0" />
    </clipPath>
  </defs>
  <sodipodi:namedview
     inkscape:document-rotation="0"
     inkscape:window-maximized="1"
     inkscape:window-y="-8"
     inkscape:window-x="-8"
     inkscape:window-height="705"
     inkscape:window-width="1366"
     units="px"
     showgrid="false"
     inkscape:current-layer="layer1"
     inkscape:document-units="px"
     inkscape:cy="52.277804"
     inkscape:cx="193.31743"
     inkscape:zoom="1.129"
     inkscape:pageshadow="2"
     inkscape:pageopacity="0.0"
     borderopacity="1.0"
     bordercolor="#666666"
     pagecolor="#ffffff"
     id="base" />
  <metadata
     id="metadata5">
    <rdf:RDF>
      <cc:Work
         rdf:about="">
        <dc:format>image/svg+xml</dc:format>
        <dc:type
           rdf:resource="http://purl.org/dc/dcmitype/StillImage" />
        <dc:title></dc:title>
      </cc:Work>
    </rdf:RDF>
  </metadata>
  <g
     transform="translate(-192.68883,-383.57772)"
     id="layer1"
     inkscape:groupmode="layer"
     inkscape:label="Camada 1">
    <g
       style="display:inline;fill:#8c0000;fill-opacity:1"
       transform="matrix(0.75861877,0,0,0.75861877,482.22124,549.16521)"
       id="g1565">
      <g
         style="fill:#8c0000;fill-opacity:1"
         id="g4866">
        <g
           transform="matrix(0.03527778,0,0,-0.03527778,-449.87476,-121.98581)"
           id="g939"
           style="fill:#8c0000;fill-opacity:1">
          <g
             id="g941"
             clip-path="url(#clipPath945-2)"
             style="fill:#8c0000;fill-opacity:1">
            <path
               d="m 2987.03,1508.67 c 38.13,43.83 129.77,129.26 211.99,233.48 82.27,104.18 155.12,227.22 223.68,374.45 68.51,147.23 132.69,318.63 165.82,400.04 33.12,81.41 35.15,72.77 26.25,15.23 -8.91,-57.57 -28.79,-164.1 -50.16,-271.87 -21.41,-107.77 -44.3,-216.84 -59.06,-280.7 -14.81,-63.91 -21.45,-82.58 -18.56,-100.04 2.89,-17.46 15.31,-33.75 19.69,-53.95 4.37,-20.19 0.7,-44.33 -25.16,-85.47 -25.82,-41.13 -73.86,-99.22 -153.47,-145.74 -79.61,-46.52 -190.78,-81.44 -254.1,-101.8 -63.32,-20.35 -78.79,-26.13 -94.18,-27.89 -15.43,-1.79 -30.82,0.47 7.26,44.26 z"
               style="fill:#8c0000;fill-opacity:1;fill-rule:nonzero;stroke:none"
               id="path953"
               inkscape:connector-curvature="0" />
          </g>
        </g>
        <g
           transform="matrix(0.03527778,0,0,-0.03527778,-449.87476,-121.98581)"
           id="g955"
           style="fill:#8c0000;fill-opacity:1">
          <g
             id="g957"
             clip-path="url(#clipPath961-2)"
             style="fill:#8c0000;fill-opacity:1">
            <path
               d="m 1957.54,1508.67 c 38.12,43.83 129.73,129.26 211.99,233.48 82.27,104.18 155.12,227.22 223.67,374.45 68.52,147.23 132.7,318.63 165.82,400.04 33.13,81.41 35.16,72.77 26.25,15.23 -8.9,-57.57 -28.79,-164.1 -50.15,-271.87 -21.41,-107.77 -44.3,-216.84 -59.07,-280.7 -14.8,-63.91 -21.44,-82.58 -18.55,-100.04 2.89,-17.46 15.31,-33.75 19.69,-53.95 4.37,-20.19 0.7,-44.33 -25.16,-85.47 -25.82,-41.13 -73.87,-99.22 -153.48,-145.74 -79.6,-46.52 -190.78,-81.44 -254.1,-101.8 -63.32,-20.35 -78.75,-26.13 -94.18,-27.89 -15.43,-1.79 -30.82,0.47 7.27,44.26 z"
               style="fill:#8c0000;fill-opacity:1;fill-rule:nonzero;stroke:none"
               id="path969"
               inkscape:connector-curvature="0" />
          </g>
        </g>
        <g
           transform="matrix(0.03527778,0,0,-0.03527778,-449.87476,-121.98581)"
           id="g971"
           style="fill:#8c0000;fill-opacity:1">
          <g
             id="g973"
             clip-path="url(#clipPath977-7)"
             style="fill:#8c0000;fill-opacity:1">
            <path
               d="m 3880.47,1507.85 c -38.28,58.83 -98.48,185.47 -143.13,324.14 -44.61,138.67 -73.63,289.38 -89.57,408.67 -15.89,119.38 -18.71,207.31 -17.54,287.23 1.14,79.92 6.22,151.8 8.6,183.2 2.34,31.41 1.99,22.35 23.36,-25.78 21.4,-48.16 64.53,-135.35 141.44,-261.76 76.88,-126.36 187.54,-291.91 252.66,-390.15 65.12,-98.28 84.65,-129.26 94.34,-146.99 9.68,-17.78 9.49,-22.31 -5.36,-49.46 -14.88,-27.15 -44.41,-76.91 -79.18,-142.38 -34.72,-65.43 -74.64,-146.56 -102.77,-191.6 -28.16,-45.04 -44.53,-53.99 -82.85,4.88 z"
               style="fill:#8c0000;fill-opacity:1;fill-rule:nonzero;stroke:none"
               id="path985"
               inkscape:connector-curvature="0" />
          </g>
        </g>
        <g
           transform="matrix(0.03527778,0,0,-0.03527778,-449.87476,-121.98581)"
           id="g987"
           style="fill:#8c0000;fill-opacity:1">
          <g
             id="g989"
             clip-path="url(#clipPath993-9)"
             style="fill:#8c0000;fill-opacity:1">
            <path
               d="m 2850.98,1507.85 c -38.28,58.83 -98.48,185.47 -143.13,324.14 -44.61,138.67 -73.63,289.38 -89.57,408.67 -15.9,119.38 -18.71,207.31 -17.54,287.23 1.14,79.92 6.25,151.8 8.6,183.2 2.34,31.41 1.99,22.35 23.36,-25.78 21.36,-48.16 64.53,-135.35 141.44,-261.76 76.88,-126.36 187.54,-291.91 252.66,-390.15 65.11,-98.28 84.65,-129.26 94.33,-146.99 9.69,-17.78 9.5,-22.31 -5.35,-49.46 -14.88,-27.15 -44.45,-76.91 -79.18,-142.38 -34.72,-65.43 -74.65,-146.56 -102.77,-191.6 -28.17,-45.04 -44.53,-53.99 -82.85,4.88 z"
               style="fill:#8c0000;fill-opacity:1;fill-rule:nonzero;stroke:none"
               id="path1001"
               inkscape:connector-curvature="0" />
          </g>
        </g>
      </g>
    </g>
  </g>
</svg>
